<?xml version="1.0" encoding="UTF-8"?><svg id="_レイヤー_1" xmlns="http://www.w3.org/2000/svg" viewBox="0 0 38.89 36.06"><defs><style>.cls-1{fill:#fff;}.cls-2{fill:#333;}</style></defs><path class="cls-2" d="M16.08,7.07v7.41c0,.39,.17,.69,.5,.88,.34,.17,.69,.17,1.05,0l6.06-3.7c.31-.22,.46-.52,.46-.88s-.15-.65-.46-.84l-6.06-3.7c-.36-.22-.72-.24-1.05-.04-.34,.2-.5,.49-.5,.88Zm14.14,3.7c-.03,2.02-.52,3.83-1.47,5.43-.95,1.63-2.24,2.92-3.87,3.87-1.6,.95-3.41,1.44-5.43,1.47-2.02-.03-3.83-.52-5.43-1.47-1.63-.95-2.92-2.24-3.87-3.87-.95-1.6-1.44-3.41-1.47-5.43,.03-2.02,.52-3.83,1.47-5.43,.95-1.63,2.24-2.92,3.87-3.87,1.6-.95,3.41-1.44,5.43-1.47,2.02,.03,3.83,.52,5.43,1.47,1.63,.95,2.92,2.24,3.87,3.87,.95,1.6,1.44,3.41,1.47,5.43Z"/><g><path class="cls-1" d="M9.78,26.59c.58,.1,1.05,.38,1.05,.96,0,.41-.23,.74-.59,.93-.31,.17-.62,.24-1.05,.24h-1.49v-.17c.51-.05,.54-.1,.54-.58v-2.42c0-.5-.05-.54-.54-.59v-.17h1.58c.45,0,.74,.08,.93,.21,.21,.14,.36,.37,.36,.68,0,.57-.47,.83-.8,.91Zm-.69-.07c.66,0,.94-.27,.94-.76,0-.42-.26-.75-.84-.75-.17,0-.28,.02-.34,.06-.05,.04-.07,.1-.07,.3v1.15h.31Zm-.31,1.44c0,.44,.1,.54,.53,.54,.47,0,.93-.25,.93-.89s-.44-.88-1.17-.88h-.29v1.23Z"/><path class="cls-1" d="M15.28,27.07c-.38,.05-.4,.08-.4,.44v.51c0,.21,0,.41,.04,.57-.37,.08-.86,.22-1.37,.22-1.37,0-2.21-.85-2.21-2.07,0-1.28,1.04-2.04,2.25-2.04,.62,0,1.07,.12,1.26,.15,.01,.22,.04,.59,.09,.97l-.18,.04c-.15-.51-.32-.73-.7-.86-.14-.05-.39-.08-.56-.08-.92,0-1.52,.63-1.52,1.74,0,.96,.5,1.92,1.67,1.92,.21,0,.39-.04,.51-.1,.13-.07,.21-.14,.21-.39v-.5c0-.44-.05-.49-.63-.53v-.18h1.55v.18Z"/><path class="cls-1" d="M19.14,28.72v-.17c.5-.05,.51-.08,.51-.73v-2.46c-.49,1.11-1.29,2.83-1.5,3.37h-.16c-.21-.55-.89-2.21-1.35-3.31-.1,2.12-.11,2.59-.11,2.71,0,.34,.16,.39,.57,.43v.17h-1.43v-.17c.35-.04,.5-.11,.54-.44,.04-.27,.04-.48,.2-2.69,.02-.31-.04-.42-.57-.47v-.17h1.05l1.33,3.06,1.43-3.06h1.06v.17c-.52,.06-.59,.12-.57,.54l.02,2.32c.02,.65,.04,.68,.57,.73v.17h-1.61Z"/><path class="cls-1" d="M24.69,24.7c1.03,0,1.96,.79,1.96,1.99,0,1.3-.88,2.11-1.99,2.11s-2.01-.88-2.01-2.02,.77-2.08,2.04-2.08Zm-.12,.22c-.68,0-1.29,.57-1.29,1.7s.62,1.95,1.47,1.95c.73,0,1.28-.54,1.28-1.71,0-1.27-.67-1.94-1.46-1.94Z"/><path class="cls-1" d="M31.38,24.96c-.39,.04-.51,.1-.53,.38,0,.19-.02,.45-.02,1.01v2.42h-.23l-2.59-3.16v1.51c0,.54,.02,.82,.03,.99,.01,.31,.16,.4,.6,.44v.17h-1.47v-.17c.37-.03,.52-.12,.54-.42,.02-.19,.03-.47,.03-1.02v-1.54c0-.17-.01-.27-.12-.4-.11-.15-.24-.19-.54-.22v-.17h.91l2.56,3.04v-1.48c0-.56-.01-.82-.03-1-.02-.27-.16-.36-.64-.39v-.17h1.49v.17Z"/><path class="cls-1" d="M.91,33.27c.07-.03,.13-.04,.18-.04,.43,0,.79,.37,.79,.85,0,.54-.46,1.01-.99,1-.17,0-.4-.04-.62-.14v-2.25c0-.25-.01-.27-.27-.29v-.1c.19-.02,.44-.08,.58-.14v1.25l.32-.14Zm-.32,1.3c0,.06,0,.1,.02,.14,.05,.1,.2,.22,.4,.22,.34,0,.52-.29,.52-.75s-.28-.72-.61-.72c-.12,0-.25,.04-.32,.08v1.04Z"/><path class="cls-1" d="M3.91,33.38c-.21,.03-.25,.06-.35,.29-.1,.22-.21,.5-.48,1.19-.26,.64-.33,.89-.4,1.1-.02,.08-.07,.1-.12,.1-.13,0-.24-.09-.24-.19,0-.05,.03-.09,.09-.14,.13-.1,.22-.2,.27-.29,.08-.17,.14-.31,.16-.36,.02-.06,.02-.1,0-.16-.16-.46-.37-.95-.49-1.24-.09-.22-.12-.27-.34-.3v-.11h.81v.11c-.18,.03-.2,.07-.15,.22l.39,.98c.11-.28,.27-.72,.36-.97,.05-.15,.02-.2-.21-.23v-.11h.73v.11Z"/><path class="cls-1" d="M7.71,32.54c-.33,.03-.36,.05-.36,.39v1.6c0,.34,.04,.35,.36,.38v.11h-1.07v-.11c.33-.04,.36-.05,.36-.38v-.8h-1.37v.8c0,.33,.03,.34,.36,.38v.11h-1.07v-.11c.32-.04,.36-.05,.36-.38v-1.6c0-.34-.04-.36-.36-.39v-.11h1.07v.11c-.32,.03-.36,.06-.36,.39v.64h1.37v-.64c0-.33-.04-.36-.36-.39v-.11h1.07v.11Z"/><path class="cls-1" d="M8.02,35.03v-.11c.25-.02,.28-.04,.28-.32v-.82c0-.25-.01-.26-.25-.3v-.1c.21-.04,.4-.09,.57-.16v1.38c0,.27,.03,.29,.29,.32v.11h-.88Zm.42-2.2c-.11,0-.21-.1-.21-.21,0-.13,.1-.22,.22-.22s.2,.09,.2,.22c0,.11-.09,.21-.21,.21Z"/><path class="cls-1" d="M11.06,34.93c-.08,.02-.38,.06-.62,.15v-.26c-.07,.04-.18,.1-.25,.14-.16,.09-.27,.12-.32,.12-.32,0-.74-.32-.74-.88s.49-.97,1.04-.97c.06,0,.19,0,.27,.04v-.59c0-.26-.03-.26-.31-.29v-.1c.2-.03,.48-.08,.63-.14v2.41c0,.21,.03,.24,.18,.24h.13v.12Zm-.62-1.34c-.09-.14-.26-.2-.42-.2-.19,0-.53,.13-.53,.7,0,.48,.3,.74,.56,.74,.14,0,.3-.07,.4-.14v-1.1Z"/><path class="cls-1" d="M12.72,34.69c-.26,.32-.54,.39-.66,.39-.49,0-.78-.4-.78-.86,0-.27,.1-.52,.26-.7,.17-.19,.39-.29,.6-.29,.35,0,.61,.3,.61,.62,0,.08-.02,.12-.08,.13-.08,.02-.59,.05-1.07,.07-.01,.54,.32,.76,.6,.76,.16,0,.32-.07,.46-.2l.06,.09Zm-.69-1.31c-.18,0-.36,.17-.42,.5,.22,0,.45,0,.68-.01,.07,0,.1-.02,.1-.08,0-.21-.14-.4-.36-.4Z"/><path class="cls-1" d="M14.73,33.38c-.21,.03-.25,.06-.35,.29-.1,.22-.21,.5-.48,1.19-.26,.64-.33,.89-.4,1.1-.02,.08-.07,.1-.12,.1-.13,0-.24-.09-.24-.19,0-.05,.03-.09,.09-.14,.13-.1,.22-.2,.27-.29,.08-.17,.14-.31,.16-.36,.02-.06,.02-.1,0-.16-.16-.46-.37-.95-.49-1.24-.09-.22-.12-.27-.34-.3v-.11h.81v.11c-.18,.03-.2,.07-.15,.22l.39,.98c.11-.28,.27-.72,.36-.97,.05-.15,.02-.2-.21-.23v-.11h.73v.11Z"/><path class="cls-1" d="M16.71,34.94c-.19,.03-.41,.08-.61,.14v-.31c-.22,.18-.39,.31-.61,.31-.27,0-.5-.16-.5-.6v-.78c0-.22-.03-.24-.13-.26l-.11-.02v-.1c.17,0,.44-.05,.57-.07-.01,.13-.01,.32-.01,.58v.54c0,.35,.18,.45,.36,.45,.15,0,.3-.06,.43-.19v-.93c0-.22-.05-.24-.18-.26l-.13-.02v-.1c.26-.01,.54-.06,.63-.07v1.34c0,.2,.03,.23,.18,.24h.11v.12Z"/><path class="cls-1" d="M18.85,35.03c-.22,0-.45,0-.54,0-.02-.03-.65-.77-.68-.79-.06-.06-.08-.08-.12-.08-.02,0-.05,0-.07,0v.44c0,.27,.02,.28,.28,.31v.11h-.88v-.11c.27-.02,.29-.05,.29-.31v-1.91c0-.26-.03-.27-.28-.3v-.1c.21-.02,.45-.08,.59-.14v1.91c.12-.03,.2-.08,.26-.14,.09-.09,.24-.27,.31-.37,.08-.12,.05-.15-.14-.16v-.11l.82-.04v.11c-.28,.04-.36,.08-.53,.26-.08,.08-.26,.28-.34,.39,.08,.11,.49,.58,.62,.71,.19,.19,.25,.2,.4,.21v.11Z"/><path class="cls-1" d="M18.86,35.03v-.11c.25-.02,.28-.04,.28-.32v-.82c0-.25-.01-.26-.25-.3v-.1c.21-.04,.4-.09,.57-.16v1.38c0,.27,.03,.29,.29,.32v.11h-.88Zm.42-2.2c-.11,0-.21-.1-.21-.21,0-.13,.1-.22,.22-.22s.2,.09,.2,.22c0,.11-.09,.21-.21,.21Z"/><path class="cls-1" d="M23.71,32.54c-.33,.03-.36,.05-.36,.39v1.6c0,.34,.04,.35,.36,.38v.11h-1.07v-.11c.33-.04,.36-.05,.36-.38v-.8h-1.37v.8c0,.33,.03,.34,.36,.38v.11h-1.07v-.11c.32-.04,.36-.05,.36-.38v-1.6c0-.34-.04-.36-.36-.39v-.11h1.07v.11c-.32,.03-.36,.06-.36,.39v.64h1.37v-.64c0-.33-.04-.36-.36-.39v-.11h1.07v.11Z"/><path class="cls-1" d="M25.31,35.08c-.06,0-.15-.03-.19-.08-.05-.05-.08-.11-.1-.18-.16,.11-.36,.26-.48,.26-.28,0-.49-.24-.49-.49,0-.2,.11-.32,.33-.4,.24-.08,.54-.19,.63-.26v-.08c0-.28-.14-.45-.35-.45-.09,0-.15,.04-.19,.09-.04,.06-.07,.14-.11,.26-.02,.06-.06,.09-.12,.09-.08,0-.18-.08-.18-.18,0-.06,.05-.1,.13-.16,.12-.08,.35-.23,.58-.28,.12,0,.24,.04,.34,.11,.14,.12,.2,.26,.2,.46v.77c0,.18,.07,.24,.14,.24,.05,0,.1-.02,.14-.04l.04,.11-.34,.2Zm-.29-1.01c-.09,.04-.28,.13-.37,.17-.15,.07-.24,.14-.24,.29,0,.21,.16,.31,.29,.31,.1,0,.25-.06,.33-.14v-.62Z"/><path class="cls-1" d="M26.86,33.75c-.07-.23-.18-.39-.42-.39-.14,0-.25,.1-.25,.26,0,.17,.12,.25,.34,.36,.34,.16,.52,.28,.52,.55,0,.37-.34,.56-.65,.56-.21,0-.39-.06-.48-.11-.02-.12-.06-.33-.07-.47l.12-.02c.07,.26,.21,.46,.49,.46,.15,0,.28-.1,.28-.27,0-.18-.11-.27-.32-.38-.28-.14-.51-.26-.51-.55s.25-.52,.62-.52c.17,0,.3,.04,.38,.05,.01,.1,.04,.35,.06,.44l-.12,.03Z"/><path class="cls-1" d="M28.41,35.03v-.11c.23-.02,.26-.04,.26-.31v-.66c0-.33-.13-.5-.4-.5-.15,0-.31,.08-.42,.21v.94c0,.26,.03,.28,.27,.31v.11h-.87v-.11c.23-.02,.28-.04,.28-.31v-1.93c0-.21-.01-.26-.28-.29v-.1c.21-.02,.45-.08,.6-.14v1.36c.14-.14,.36-.29,.58-.29,.33,0,.56,.2,.56,.68v.7c0,.26,.03,.28,.26,.3v.11h-.84Z"/><path class="cls-1" d="M29.48,35.03v-.11c.25-.02,.28-.04,.28-.32v-.82c0-.25-.01-.26-.25-.3v-.1c.21-.04,.4-.09,.57-.16v1.38c0,.27,.03,.29,.29,.32v.11h-.88Zm.42-2.2c-.11,0-.21-.1-.21-.21,0-.13,.1-.22,.22-.22s.2,.09,.2,.22c0,.11-.09,.21-.21,.21Z"/><path class="cls-1" d="M32.76,35.03v-.11c.24-.02,.26-.04,.26-.32v-.67c0-.28-.1-.46-.34-.46-.15,0-.29,.08-.44,.21,0,.05,.01,.1,.01,.17v.78c0,.25,.04,.27,.26,.3v.11h-.86v-.11c.25-.02,.28-.04,.28-.3v-.69c0-.3-.09-.46-.34-.46-.16,0-.32,.11-.44,.21v.94c0,.26,.03,.28,.26,.3v.11h-.86v-.11c.26-.02,.29-.04,.29-.3v-.83c0-.26-.02-.27-.24-.31v-.1c.19-.03,.38-.08,.56-.16v.32c.08-.06,.17-.13,.3-.21,.1-.06,.19-.1,.32-.1,.19,0,.36,.12,.44,.33,.11-.09,.22-.16,.32-.22,.09-.06,.2-.1,.32-.1,.31,0,.5,.22,.5,.62v.77c0,.27,.02,.28,.25,.3v.11h-.83Z"/><path class="cls-1" d="M34.74,33.23c.5,0,.87,.38,.87,.9,0,.65-.48,.96-.87,.96-.55,0-.89-.44-.89-.89,0-.65,.51-.96,.89-.96Zm-.05,.14c-.24,0-.46,.24-.46,.7,0,.51,.22,.88,.55,.88,.25,0,.46-.18,.46-.73,0-.47-.19-.85-.54-.85Z"/><path class="cls-1" d="M36.68,35.03c-.07,.04-.13,.05-.17,.05-.26,0-.39-.16-.39-.48v-1.16h-.28l-.02-.05,.11-.12h.18v-.34c.08-.08,.19-.18,.27-.26h.06c0,.18-.01,.41-.01,.6h.46s.02,.13-.02,.16h-.43v1.02c0,.32,.13,.38,.23,.38,.1,0,.19-.04,.24-.06l.04,.1-.26,.14Z"/><path class="cls-1" d="M38.02,33.23c.5,0,.87,.38,.87,.9,0,.65-.48,.96-.87,.96-.55,0-.89-.44-.89-.89,0-.65,.51-.96,.89-.96Zm-.05,.14c-.24,0-.46,.24-.46,.7,0,.51,.22,.88,.55,.88,.25,0,.46-.18,.46-.73,0-.47-.19-.85-.54-.85Z"/></g></svg>